<svg xmlns="http://www.w3.org/2000/svg" width="34.01" height="34.01"><path d="M17 34.01c9.4 0 17.01-7.61 17.01-17.01C34.01 7.61 26.4 0 17 0 7.61 0 0 7.61 0 17c0 9.4 7.61 17.01 17 17.01" fill="#70c9ec"/><path d="M25.54 12.55c-.63.28-1.31.46-2.01.55a3.49 3.49 0 001.53-1.94c-.67.41-1.42.7-2.21.85a3.5 3.5 0 00-2.56-1.1 3.493 3.493 0 00-3.4 4.29 9.945 9.945 0 01-7.2-3.65 3.471 3.471 0 001.08 4.66c-.58-.01-1.11-.17-1.59-.43v.04c0 1.7 1.21 3.11 2.81 3.43-.3.08-.6.12-.92.12-.23 0-.45-.02-.66-.06a3.49 3.49 0 003.26 2.43c-1.19.93-2.7 1.49-4.34 1.49-.28 0-.56-.01-.83-.05 1.55.99 3.38 1.57 5.36 1.57 6.43 0 9.94-5.32 9.94-9.94 0-.15 0-.3-.01-.45a7.34 7.34 0 001.75-1.81" fill="#fff"/></svg>