<svg xmlns="http://www.w3.org/2000/svg" width="34.01" height="34.01"><path d="M17 34.01c9.4 0 17.01-7.61 17.01-17.01C34.01 7.61 26.4 0 17 0 7.61 0 0 7.61 0 17c0 9.4 7.61 17.01 17 17.01" fill="#ee5450"/><path d="M17 8.45c-4.69 0-8.5 3.81-8.5 8.51 0 3.48 2.09 6.47 5.09 7.79-.02-.6 0-1.31.15-1.96.16-.69 1.09-4.63 1.09-4.63s-.27-.54-.27-1.35c0-1.26.73-2.2 1.64-2.2.77 0 1.15.58 1.15 1.28 0 .78-.5 1.94-.75 3.02-.22.9.45 1.63 1.34 1.63 1.61 0 2.69-2.06 2.69-4.52 0-1.86-1.25-3.25-3.53-3.25-2.58 0-4.19 1.92-4.19 4.07 0 .74.22 1.26.56 1.67.16.18.18.26.12.47-.04.16-.13.53-.17.68-.06.22-.23.29-.43.21-1.18-.48-1.74-1.78-1.74-3.24 0-2.42 2.04-5.32 6.08-5.32 3.25 0 5.38 2.35 5.38 4.87 0 3.34-1.85 5.83-4.59 5.83-.91 0-1.78-.49-2.07-1.06 0 0-.5 1.96-.6 2.34-.18.66-.53 1.31-.86 1.82.77.23 1.58.35 2.41.35 4.7 0 8.51-3.81 8.51-8.5 0-4.7-3.81-8.51-8.51-8.51" fill="#fff"/></svg>